<?xml version="1.0" encoding="UTF-8" standalone="no"?>
<!-- Uploaded to: SVG Repo, www.svgrepo.com, Generator: SVG Repo Mixer Tools -->

<svg
   class="cursor"
   width="32px"
   height="32px"
   viewBox="0 0 24 24"
   fill="#000000"
   version="1.1"
   id="svg1"
   sodipodi:docname="default.svg"
   inkscape:version="1.3.2 (091e20e, 2023-11-25, custom)"
   xmlns:inkscape="http://www.inkscape.org/namespaces/inkscape"
   xmlns:sodipodi="http://sodipodi.sourceforge.net/DTD/sodipodi-0.dtd"
   xmlns="http://www.w3.org/2000/svg"
   xmlns:svg="http://www.w3.org/2000/svg">
  <defs
     id="defs1" />
  <sodipodi:namedview
     id="namedview1"
     pagecolor="#ffffff"
     bordercolor="#666666"
     borderopacity="1.0"
     inkscape:showpageshadow="2"
     inkscape:pageopacity="0.0"
     inkscape:pagecheckerboard="0"
     inkscape:deskcolor="#d1d1d1"
     inkscape:zoom="32"
     inkscape:cx="15.53125"
     inkscape:cy="17.578125"
     inkscape:window-width="1920"
     inkscape:window-height="1009"
     inkscape:window-x="-8"
     inkscape:window-y="-8"
     inkscape:window-maximized="1"
     inkscape:current-layer="svg1" />
  <path
     fill-rule="evenodd"
     clip-rule="evenodd"
     d="M3.3572 3.23397C3.66645 2.97447 4.1014 2.92638 4.45988 3.11204L20.7851 11.567C21.1426 11.7522 21.3542 12.1337 21.322 12.5351C21.2898 12.9364 21.02 13.2793 20.6375 13.405L13.7827 15.6586L10.373 22.0179C10.1828 22.3728 9.79826 22.5789 9.39743 22.541C8.9966 22.503 8.65762 22.2284 8.53735 21.8441L3.04564 4.29872C2.92505 3.91345 3.04794 3.49346 3.3572 3.23397ZM5.67123 5.99173L9.73507 18.9752L12.2091 14.361C12.3304 14.1347 12.5341 13.9637 12.7781 13.8835L17.7518 12.2484L5.67123 5.99173Z"
     fill="#ffffff"
     id="path1"
     style="fill:#ffffff" />
  <path
     d="M 5.671875,5.9912109 9.7353516,18.975586 12.209473,14.361328 c 0.1213,-0.2263 0.324359,-0.39734 0.568359,-0.477539 l 4.974609,-1.634766 z"
     style="clip-rule:evenodd;fill:#000000;fill-rule:evenodd;fill-opacity:0.73000002"
     id="path4" />
</svg>
