<?xml version="1.0" encoding="UTF-8" standalone="no"?>
<!-- Uploaded to: SVG Repo, www.svgrepo.com, Generator: SVG Repo Mixer Tools -->

<svg
   width="800px"
   height="800px"
   viewBox="0 0 24 24"
   fill="none"
   version="1.1"
   id="svg2"
   sodipodi:docname="copy.svg"
   inkscape:version="1.3.2 (091e20e, 2023-11-25, custom)"
   xmlns:inkscape="http://www.inkscape.org/namespaces/inkscape"
   xmlns:sodipodi="http://sodipodi.sourceforge.net/DTD/sodipodi-0.dtd"
   xmlns="http://www.w3.org/2000/svg"
   xmlns:svg="http://www.w3.org/2000/svg">
  <defs
     id="defs2" />
  <sodipodi:namedview
     id="namedview2"
     pagecolor="#ffffff"
     bordercolor="#666666"
     borderopacity="1.0"
     inkscape:showpageshadow="2"
     inkscape:pageopacity="0.0"
     inkscape:pagecheckerboard="0"
     inkscape:deskcolor="#d1d1d1"
     inkscape:zoom="1.01625"
     inkscape:cx="400.492"
     inkscape:cy="400"
     inkscape:window-width="1920"
     inkscape:window-height="1009"
     inkscape:window-x="-8"
     inkscape:window-y="-8"
     inkscape:window-maximized="1"
     inkscape:current-layer="svg2" />
  <path
     fill-rule="evenodd"
     clip-rule="evenodd"
     d="M21 8C21 6.34315 19.6569 5 18 5H10C8.34315 5 7 6.34315 7 8V20C7 21.6569 8.34315 23 10 23H18C19.6569 23 21 21.6569 21 20V8ZM19 8C19 7.44772 18.5523 7 18 7H10C9.44772 7 9 7.44772 9 8V20C9 20.5523 9.44772 21 10 21H18C18.5523 21 19 20.5523 19 20V8Z"
     fill="#0F0F0F"
     id="path1"
     style="fill:#ffffff" />
  <path
     d="M6 3H16C16.5523 3 17 2.55228 17 2C17 1.44772 16.5523 1 16 1H6C4.34315 1 3 2.34315 3 4V18C3 18.5523 3.44772 19 4 19C4.55228 19 5 18.5523 5 18V4C5 3.44772 5.44772 3 6 3Z"
     fill="#0F0F0F"
     id="path2"
     style="fill:#ffffff" />
</svg>
